<svg data-v-423bf9ae="" xmlns="http://www.w3.org/2000/svg" viewBox="0 0 446.34148698046664 174" class="iconAbove"><!----><!----><!----><g data-v-423bf9ae="" id="847bbc76-c083-41f8-8531-cd71cb9d3a47" fill="black" transform="matrix(5.628517904206723,0,0,5.628517904206723,-6.360220103725027,113.33406403668828)"><path d="M3.09 6.55L3.09 10.50L1.13 10.50L1.13 1.36L6.65 1.36L6.36 2.91L3.09 2.91L3.09 5.00L6.36 5.00L6.36 6.55L3.09 6.55ZM12.49 3.18L12.49 5.10L12.49 5.10Q12.17 5.03 11.91 5.02L11.91 5.02L11.91 5.02Q11.65 5.01 11.42 5.03L11.42 5.03L11.42 5.03Q10.98 5.05 10.69 5.22L10.69 5.22L10.69 5.22Q10.40 5.39 10.25 5.66L10.25 5.66L10.25 5.66Q10.09 5.94 10.04 6.28L10.04 6.28L10.04 6.28Q9.98 6.62 9.98 6.99L9.98 6.99L9.98 10.50L8.09 10.50L8.09 3.36L9.48 3.36L9.77 4.93L9.77 4.93Q9.77 4.93 9.81 4.77L9.81 4.77L9.81 4.77Q9.84 4.61 9.95 4.38L9.95 4.38L9.95 4.38Q10.05 4.14 10.25 3.88L10.25 3.88L10.25 3.88Q10.44 3.63 10.75 3.43L10.75 3.43L10.75 3.43Q11.05 3.23 11.47 3.15L11.47 3.15L11.47 3.15Q11.90 3.07 12.49 3.18L12.49 3.18ZM17.14 10.65L17.14 10.65L17.14 10.65Q15.97 10.65 15.22 10.35L15.22 10.35L15.22 10.35Q14.46 10.04 14.01 9.52L14.01 9.52L14.01 9.52Q13.55 9.00 13.37 8.32L13.37 8.32L13.37 8.32Q13.19 7.64 13.19 6.89L13.19 6.89L13.19 6.89Q13.19 6.22 13.37 5.54L13.37 5.54L13.37 5.54Q13.55 4.87 13.95 4.33L13.95 4.33L13.95 4.33Q14.35 3.79 14.99 3.46L14.99 3.46L14.99 3.46Q15.64 3.12 16.56 3.12L16.56 3.12L16.56 3.12Q17.54 3.12 18.19 3.46L18.19 3.46L18.19 3.46Q18.84 3.79 19.24 4.33L19.24 4.33L19.24 4.33Q19.63 4.87 19.79 5.54L19.79 5.54L19.79 5.54Q19.95 6.22 19.95 6.89L19.95 6.89L19.95 7.52L14.99 7.52L14.99 7.52Q14.99 8.27 15.53 8.76L15.53 8.76L15.53 8.76Q16.07 9.25 17.01 9.25L17.01 9.25L17.01 9.25Q17.54 9.25 17.99 9.14L17.99 9.14L17.99 9.14Q18.44 9.03 18.76 8.89L18.76 8.89L18.76 8.89Q19.12 8.74 19.43 8.53L19.43 8.53L19.43 10.09L19.43 10.09Q19.43 10.11 19.25 10.19L19.25 10.19L19.25 10.19Q19.07 10.28 18.76 10.38L18.76 10.38L18.76 10.38Q18.45 10.49 18.03 10.57L18.03 10.57L18.03 10.57Q17.61 10.65 17.14 10.65ZM14.99 6.19L18.17 6.19L18.17 6.19Q18.17 5.95 18.11 5.66L18.11 5.66L18.11 5.66Q18.05 5.38 17.87 5.12L17.87 5.12L17.87 5.12Q17.70 4.87 17.38 4.70L17.38 4.70L17.38 4.70Q17.07 4.54 16.56 4.54L16.56 4.54L16.56 4.54Q16.13 4.54 15.83 4.70L15.83 4.70L15.83 4.70Q15.53 4.87 15.34 5.12L15.34 5.12L15.34 5.12Q15.16 5.38 15.08 5.66L15.08 5.66L15.08 5.66Q14.99 5.95 14.99 6.19L14.99 6.19ZM24.91 10.65L24.91 10.65L24.91 10.65Q23.74 10.65 22.99 10.35L22.99 10.35L22.99 10.35Q22.23 10.04 21.78 9.52L21.78 9.52L21.78 9.52Q21.32 9.00 21.14 8.32L21.14 8.32L21.14 8.32Q20.96 7.64 20.96 6.89L20.96 6.89L20.96 6.89Q20.96 6.22 21.14 5.54L21.14 5.54L21.14 5.54Q21.32 4.87 21.72 4.33L21.72 4.33L21.72 4.33Q22.12 3.79 22.76 3.46L22.76 3.46L22.76 3.46Q23.41 3.12 24.33 3.12L24.33 3.12L24.33 3.12Q25.31 3.12 25.96 3.46L25.96 3.46L25.96 3.46Q26.61 3.79 27.01 4.33L27.01 4.33L27.01 4.33Q27.40 4.87 27.56 5.54L27.56 5.54L27.56 5.54Q27.72 6.22 27.72 6.89L27.72 6.89L27.72 7.52L22.76 7.52L22.76 7.52Q22.76 8.27 23.30 8.76L23.30 8.76L23.30 8.76Q23.84 9.25 24.78 9.25L24.78 9.25L24.78 9.25Q25.31 9.25 25.76 9.14L25.76 9.14L25.76 9.14Q26.21 9.03 26.53 8.89L26.53 8.89L26.53 8.89Q26.89 8.74 27.20 8.53L27.20 8.53L27.20 10.09L27.20 10.09Q27.20 10.11 27.02 10.19L27.02 10.19L27.02 10.19Q26.84 10.28 26.53 10.38L26.53 10.38L26.53 10.38Q26.22 10.49 25.80 10.57L25.80 10.57L25.80 10.57Q25.38 10.65 24.91 10.65ZM22.76 6.19L25.94 6.19L25.94 6.19Q25.94 5.95 25.88 5.66L25.88 5.66L25.88 5.66Q25.82 5.38 25.64 5.12L25.64 5.12L25.64 5.12Q25.47 4.87 25.15 4.70L25.15 4.70L25.15 4.70Q24.84 4.54 24.33 4.54L24.33 4.54L24.33 4.54Q23.90 4.54 23.60 4.70L23.60 4.70L23.60 4.70Q23.30 4.87 23.11 5.12L23.11 5.12L23.11 5.12Q22.93 5.38 22.85 5.66L22.85 5.66L22.85 5.66Q22.76 5.95 22.76 6.19L22.76 6.19ZM35.21 6.55L35.21 10.50L33.25 10.50L33.25 1.36L38.77 1.36L38.47 2.91L35.21 2.91L35.21 5.00L38.47 5.00L38.47 6.55L35.21 6.55ZM43.47 3.12L43.47 3.12L43.47 3.12Q44.03 3.12 44.69 3.29L44.69 3.29L44.69 3.29Q45.35 3.46 45.92 3.88L45.92 3.88L45.92 3.88Q46.49 4.30 46.88 5.03L46.88 5.03L46.88 5.03Q47.26 5.75 47.26 6.89L47.26 6.89L47.26 6.89Q47.26 8.02 46.88 8.75L46.88 8.75L46.88 8.75Q46.49 9.48 45.92 9.90L45.92 9.90L45.92 9.90Q45.35 10.32 44.69 10.49L44.69 10.49L44.69 10.49Q44.03 10.65 43.47 10.65L43.47 10.65L43.47 10.65Q42.91 10.65 42.25 10.49L42.25 10.49L42.25 10.49Q41.59 10.32 41.03 9.90L41.03 9.90L41.03 9.90Q40.46 9.48 40.08 8.75L40.08 8.75L40.08 8.75Q39.70 8.02 39.70 6.89L39.70 6.89L39.70 6.89Q39.70 5.75 40.08 5.03L40.08 5.03L40.08 5.03Q40.46 4.30 41.03 3.88L41.03 3.88L41.03 3.88Q41.59 3.46 42.25 3.29L42.25 3.29L42.25 3.29Q42.91 3.12 43.47 3.12ZM43.47 9.25L43.47 9.25L43.47 9.25Q44.25 9.25 44.78 8.64L44.78 8.64L44.78 8.64Q45.30 8.02 45.30 6.89L45.30 6.89L45.30 6.89Q45.30 5.75 44.78 5.14L44.78 5.14L44.78 5.14Q44.25 4.54 43.47 4.54L43.47 4.54L43.47 4.54Q42.71 4.54 42.20 5.14L42.20 5.14L42.20 5.14Q41.68 5.75 41.68 6.89L41.68 6.89L41.68 6.89Q41.68 7.45 41.82 7.89L41.82 7.89L41.82 7.89Q41.96 8.33 42.20 8.63L42.20 8.63L42.20 8.63Q42.43 8.93 42.76 9.09L42.76 9.09L42.76 9.09Q43.09 9.25 43.47 9.25ZM53.17 3.18L53.17 5.10L53.17 5.10Q52.85 5.03 52.59 5.02L52.59 5.02L52.59 5.02Q52.33 5.01 52.11 5.03L52.11 5.03L52.11 5.03Q51.66 5.05 51.37 5.22L51.37 5.22L51.37 5.22Q51.09 5.39 50.93 5.66L50.93 5.66L50.93 5.66Q50.78 5.94 50.72 6.28L50.72 6.28L50.72 6.28Q50.67 6.62 50.67 6.99L50.67 6.99L50.67 10.50L48.78 10.50L48.78 3.36L50.16 3.36L50.46 4.93L50.46 4.93Q50.46 4.93 50.49 4.77L50.49 4.77L50.49 4.77Q50.53 4.61 50.63 4.38L50.63 4.38L50.63 4.38Q50.74 4.14 50.93 3.88L50.93 3.88L50.93 3.88Q51.13 3.63 51.43 3.43L51.43 3.43L51.43 3.43Q51.73 3.23 52.16 3.15L52.16 3.15L52.16 3.15Q52.58 3.07 53.17 3.18L53.17 3.18ZM63.88 8.95L63.88 10.50L58.39 10.50L58.39 1.36L60.34 1.36L60.34 8.95L63.88 8.95ZM66.98 10.50L65.09 10.50L65.09 3.29L66.98 3.29L66.98 10.50ZM67.07 1.02L67.07 1.02L67.07 1.02Q67.07 1.47 66.77 1.78L66.77 1.78L66.77 1.78Q66.46 2.09 66.02 2.09L66.02 2.09L66.02 2.09Q65.58 2.09 65.27 1.78L65.27 1.78L65.27 1.78Q64.96 1.47 64.96 1.02L64.96 1.02L64.96 1.02Q64.96 0.59 65.27 0.29L65.27 0.29L65.27 0.29Q65.58-0.01 66.02-0.01L66.02-0.01L66.02-0.01Q66.46-0.01 66.77 0.29L66.77 0.29L66.77 0.29Q67.07 0.59 67.07 1.02ZM71.96 3.05L71.96 3.05L71.96 3.05Q71.68 3.05 71.53 3.14L71.53 3.14L71.53 3.14Q71.39 3.23 71.32 3.37L71.32 3.37L71.32 3.37Q71.25 3.50 71.23 3.67L71.23 3.67L71.23 3.67Q71.22 3.84 71.22 3.99L71.22 3.99L72.48 3.99L72.27 5.36L71.22 5.36L71.22 10.50L69.33 10.50L69.33 5.36L68.32 5.36L68.32 3.99L69.33 3.99L69.33 3.64L69.33 3.64Q69.33 2.91 69.60 2.48L69.60 2.48L69.60 2.48Q69.87 2.04 70.29 1.82L70.29 1.82L70.29 1.82Q70.70 1.60 71.18 1.53L71.18 1.53L71.18 1.53Q71.65 1.46 72.06 1.47L72.06 1.47L72.06 1.47Q72.46 1.48 72.74 1.53L72.74 1.53L72.74 1.53Q73.01 1.58 73.01 1.58L73.01 1.58L72.81 3.14L72.81 3.14Q72.70 3.12 72.56 3.09L72.56 3.09L72.56 3.09Q72.45 3.08 72.29 3.07L72.29 3.07L72.29 3.07Q72.13 3.05 71.96 3.05ZM77.62 10.65L77.62 10.65L77.62 10.65Q76.45 10.65 75.70 10.35L75.70 10.35L75.70 10.35Q74.94 10.04 74.49 9.52L74.49 9.52L74.49 9.52Q74.03 9.00 73.85 8.32L73.85 8.32L73.85 8.32Q73.67 7.64 73.67 6.89L73.67 6.89L73.67 6.89Q73.67 6.22 73.85 5.54L73.85 5.54L73.85 5.54Q74.03 4.87 74.43 4.33L74.43 4.33L74.43 4.33Q74.83 3.79 75.47 3.46L75.47 3.46L75.47 3.46Q76.12 3.12 77.04 3.12L77.04 3.12L77.04 3.12Q78.02 3.12 78.67 3.46L78.67 3.46L78.67 3.46Q79.32 3.79 79.72 4.33L79.72 4.33L79.72 4.33Q80.11 4.87 80.27 5.54L80.27 5.54L80.27 5.54Q80.43 6.22 80.43 6.89L80.43 6.89L80.43 7.52L75.47 7.52L75.47 7.52Q75.47 8.27 76.01 8.76L76.01 8.76L76.01 8.76Q76.55 9.25 77.49 9.25L77.49 9.25L77.49 9.25Q78.02 9.25 78.47 9.14L78.47 9.14L78.47 9.14Q78.92 9.03 79.24 8.89L79.24 8.89L79.24 8.89Q79.60 8.74 79.91 8.53L79.91 8.53L79.91 10.09L79.91 10.09Q79.91 10.11 79.73 10.19L79.73 10.19L79.73 10.19Q79.55 10.28 79.24 10.38L79.24 10.38L79.24 10.38Q78.93 10.49 78.51 10.57L78.51 10.57L78.51 10.57Q78.09 10.65 77.62 10.65ZM75.47 6.19L78.65 6.19L78.65 6.19Q78.65 5.95 78.59 5.66L78.59 5.66L78.59 5.66Q78.53 5.38 78.35 5.12L78.35 5.12L78.35 5.12Q78.18 4.87 77.86 4.70L77.86 4.70L77.86 4.70Q77.55 4.54 77.04 4.54L77.04 4.54L77.04 4.54Q76.61 4.54 76.31 4.70L76.31 4.70L76.31 4.70Q76.01 4.87 75.82 5.12L75.82 5.12L75.82 5.12Q75.64 5.38 75.56 5.66L75.56 5.66L75.56 5.66Q75.47 5.95 75.47 6.19L75.47 6.19Z"></path></g><!----><g data-v-423bf9ae="" id="2ff0df14-7004-47f0-8d56-a6dbb7cdb2e0" transform="matrix(1.0555555555555556,0,0,1.0555555555555556,170.72222222222223,-2.2777777777777786)" stroke="none" fill="black"><path d="M50 2.5C23.767 2.5 2.5 23.767 2.5 50S23.767 97.5 50 97.5c26.232 0 47.5-21.267 47.5-47.5S76.232 2.5 50 2.5zm0 85.452C29.04 87.952 12.048 70.96 12.048 50a37.786 37.786 0 0 1 7.966-23.263l8.963 8.963c-.002.115-.008.228-.008.344 0 3.82 1.167 7.024 3.501 9.613 2.334 2.589 6.193 4.987 11.796 7.194L47 53.955v13.157c-2-.17-5.725-.722-9.191-1.655C34.343 64.523 32 63.448 29 62.231v11.205c5 2.292 11 3.509 18 3.649V86h6v-9.083c5-.495 9.705-1.925 12.893-4.284l7.361 7.354A37.757 37.757 0 0 1 50 87.952zm-3-47.458l-5.372-5.372C42.055 33.261 44 32.096 47 31.631v8.863zm10.816 24.079C56.889 65.68 55 66.429 53 66.815v-7.059l4.816 4.817zm22.17 8.69l-8.743-8.744c.223-1.056.337-2.171.337-3.349 0-2.489-.545-4.668-1.634-6.536-1.09-1.867-2.817-3.578-5.153-5.135C62.459 47.943 58 46.104 53 43.981v-12.52c5 .397 9.184 1.5 13.598 3.311l3.981-9.931C65.345 22.521 60 21.219 53 20.936V15h-6v6.105c-5 .566-10.113 2.171-13.324 4.817-.21.173-.359.35-.555.53l-6.411-6.438a37.823 37.823 0 0 1 23.277-7.965c20.959 0 37.958 16.992 37.958 37.952a37.775 37.775 0 0 1-7.959 23.262z"></path></g><!----></svg>